<?xml version="1.0" encoding="utf-8"?>
<!-- Generator: Adobe Illustrator 22.0.0, SVG Export Plug-In . SVG Version: 6.00 Build 0)  -->
<svg version="1.1" id="图层_1" xmlns="http://www.w3.org/2000/svg" xmlns:xlink="http://www.w3.org/1999/xlink" x="0px" y="0px"
	 viewBox="0 0 208.5 76" style="enable-background:new 0 0 208.5 76;" xml:space="preserve">
<style type="text/css">
	.st0{fill:#034089;}
	.st1{fill:#0098FF;}
	.st2{fill:#FFFFFF;}
</style>
<title>画板 1</title>
<path class="st0" d="M51.7,69.4h-1c-3,0-5.4-2.4-5.4-5.4V32.1c0-0.2-0.1-0.3-0.3-0.4c-0.2,0-0.3,0.1-0.3,0.2l-8.7,20.5
	c-0.9,2-2.8,3.3-5,3.3h-3.2c-2.2,0-4.1-1.3-5-3.3L14,32c-0.1-0.2-0.2-0.3-0.4-0.2c-0.1,0.1-0.2,0.2-0.2,0.3V64c0,3-2.4,5.4-5.4,5.4
	l0,0c-3,0-5.4-2.4-5.4-5.4V17.5c0-3.4,2.8-6.2,6.2-6.2h3.9c2.5,0,4.7,1.5,5.7,3.7l11.1,24.8c0.1,0.2,0.3,0.2,0.4,0.2
	c0.1,0,0.1-0.1,0.2-0.2L41.1,15c1-2.2,3.2-3.7,5.7-3.7h4.1c3.4,0,6.2,2.8,6.2,6.2l0,0V64C57.1,67,54.7,69.4,51.7,69.4z"/>
<path class="st0" d="M113,69.1h-3c-2.1,0-3.9-1.3-4.5-3.3l-2.2-6.8c-0.5-1.5-1.8-2.5-3.4-2.5H83.5c-1.6,0-2.9,1-3.4,2.5L77.9,66
	c-0.6,1.9-2.4,3.2-4.4,3.3l-2.6,0.1c-2.6,0-4.7-2-4.8-4.6c0-0.6,0.1-1.1,0.3-1.7L84,15.3c0.9-2.4,3.2-4.1,5.7-4.1l3.9-0.1
	c2.7-0.1,5.2,1.6,6.1,4.1l17.6,47.6c0.9,2.4-0.3,5.1-2.7,6.1C114.1,69,113.6,69.1,113,69.1z M98.6,45.4L92.1,27
	c-0.1-0.2-0.3-0.3-0.5-0.2c-0.1,0-0.2,0.1-0.2,0.2l-6.6,18.4c-0.1,0.2,0,0.4,0.3,0.5c0,0,0.1,0,0.1,0h13.2c0.2,0,0.4-0.2,0.4-0.4
	C98.7,45.5,98.6,45.5,98.6,45.4z"/>
<path class="st0" d="M143.2,11.7c9.9,0.6,19.3,4.4,19.8,8.9c-0.4,3.9-2.2,5.9-5.3,5.9c-1.5-0.1-2.9-0.3-4.3-0.6
	c-3.4-1.3-6.9-2.2-10.5-2.7c-4.3,0.2-6.5,1.9-6.5,4.9c0,2.3,3,4.3,8.9,6.2c11.7,3.3,17.6,9.1,17.6,17.3c-0.8,11.1-7.6,17-20.4,17.6
	c-12.6-0.2-19.5-3.9-20.3-9.2c-0.6-4,1.1-5.9,5.2-5.6c1.8,0.2,3.6,0.7,5.3,1.5c2.6,0.9,5.3,1.4,8,1.5c5.1,0,9-1.4,9.2-5.9
	c0-2.5-3.3-4.6-9.9-6.5c-10.9-3.1-16.4-8.2-16.3-15.4C124.3,18.7,130.8,12.7,143.2,11.7z"/>
<rect x="176.5" y="15.4" class="st1" width="27.1" height="27.1"/>
<path class="st2" d="M180.8,32.1V18.7h1.9v5.8h5c1.2-0.1,2.2,0.8,2.2,2c0,0.1,0,0.1,0,0.2v5.4H188V27c0-0.2,0-0.5-0.2-0.6
	c-0.5-0.2-0.9-0.3-1.4-0.3h-2.9c-0.5,0-0.8,0.2-0.8,0.7V32L180.8,32.1z"/>
<polygon class="st2" points="195.8,24.4 195.8,29.8 189.9,29.8 189.9,32 195.8,32.1 195.8,39.7 197.8,39.7 197.8,32.2 197.8,32.1 
	197.8,29.9 197.8,29.9 197.8,24.5 "/>
</svg>
